<svg aria-hidden="true" style="position: absolute; width: 0; height: 0; overflow: hidden;" version="1.1" xmlns="http://www.w3.org/2000/svg" xmlns:xlink="http://www.w3.org/1999/xlink">
<defs>
<symbol id="arrow_icon" fill="white"  viewBox="0 0 32 32">
<path d="M30.24 9.6l-1.335-1.335-12.905 12.905-12.905-12.905-1.335 1.335 14.24 14.24z"></path>
</symbol>
<symbol id="burger_icon" fill="white" viewBox="0 0 32 32">
<path d="M28 10h-24c-0.552 0-1-0.448-1-1s0.448-1 1-1v0h24c0.552 0 1 0.448 1 1s-0.448 1-1 1v0z"></path>
<path d="M28 17h-24c-0.552 0-1-0.448-1-1s0.448-1 1-1v0h24c0.552 0 1 0.448 1 1s-0.448 1-1 1v0z"></path>
<path d="M28 24h-24c-0.552 0-1-0.448-1-1s0.448-1 1-1v0h24c0.552 0 1 0.448 1 1s-0.448 1-1 1v0z"></path>
</symbol>
</defs>
</svg>
